<svg xmlns="http://www.w3.org/2000/svg" width="2000" height="400">
  <path fill="#FFF" d="M1700.207 95.559c17.5 13.953 23.608 42.036 31.224 62.195 5.222 13.804 10.61 27.535 16.069 41.246 5.969 15 11.846 30.028 17.563 45.125 8.16 21.545 16.534 43.004 24.978 64.44q1.34 3.4 2.674 6.802a3926 3926 0 0 0 4.223 10.695l1.16 2.952c1.692 4.245 3.482 8.094 5.902 11.986v2c2.41-.089 2.41-.089 5-1 1.755-2.317 1.755-2.317 3.01-5.3l1.53-3.31a377 377 0 0 0 6.296-15.59l1.322-3.443q1.753-4.572 3.494-9.15 1.839-4.817 3.69-9.63l1.492-3.892.746-1.943 2.23-5.818A4589 4589 0 0 1 1845.187 252l3.824-9.781.963-2.466c3.787-9.695 7.546-19.401 11.306-29.107 8.01-20.674 16.022-41.348 24.113-61.99a3596 3596 0 0 0 4.149-10.627c15.743-40.521 15.743-40.521 34.277-48.845 16.9-6.291 37.105-6.294 54.118-.118 10.826 5.001 16.585 11.95 21.062 22.934.917 3.04 1.124 5.757 1.123 8.928l.006 3.021-.009 3.314.003 3.524q.001 4.844-.007 9.687-.005 5.223-.002 10.446 0 9.05-.008 18.099-.011 13.083-.012 26.167-.004 21.226-.019 42.454-.014 20.62-.02 41.242v2.567l-.005 12.751q-.016 52.9-.05 105.8h-59c-.122-55.246.22-110.482.662-165.725q.156-19.599.288-39.199.045-6.693.104-13.387.057-6.652.09-13.304.012-2.259.036-4.518c.02-1.981.027-3.963.033-5.944l.022-3.221c-.238-2.736-.825-4.372-2.235-6.702-2.418.018-2.418.018-5 1-1.743 2.702-1.743 2.702-2.964 6.15l-.757 1.903A413 413 0 0 0 1929 163l-1.389 3.562c-1.42 3.67-2.804 7.35-4.181 11.036l-1.559 4.145q-1.649 4.385-3.292 8.772-2.598 6.933-5.204 13.862l-6.18 16.453a21383 21383 0 0 1-14.757 39.17l-11.682 30.947a28418 28418 0 0 1-11.66 30.859 5864 5864 0 0 0-6.368 16.915 6450 6450 0 0 1-4.32 11.475 1875 1875 0 0 0-2.016 5.377C1843.15 391.055 1843.15 391.055 1829 398c-6.464 2.518-12.75 2.372-19.575 2.37-2.156.005-4.309.041-6.464.08-11.099.09-19.884-1.616-28.156-9.49-9.616-10.447-13.937-25.008-18.825-38.089l-2.096-5.573-2.194-5.85q-2.296-6.126-4.599-12.249-2.722-7.24-5.441-14.483c-3.82-10.176-7.658-20.346-11.503-30.513l-4.094-10.831-3.025-8.005-8.392-22.213-4.24-11.224q-4.924-13.027-9.84-26.058l-6.736-17.859a5466 5466 0 0 0-5.876-15.525q-.961-2.534-1.916-5.07-1.408-3.737-2.833-7.469l-.843-2.257c-1.387-3.612-2.701-6.833-5.352-9.692-2.094-.796-2.094-.796-4-1-.817 2.866-1.125 5.405-1.123 8.38l-.006 2.653.009 2.901-.003 3.092q0 5.142.01 10.286l-.001 7.36q0 7.933.008 15.865.011 11.467.012 22.936.004 18.607.019 37.213.014 18.075.02 36.15v2.25l.005 11.178q.016 46.368.05 92.736h-59a83006 83006 0 0 1-.22-119.77l-.003-2.545a27681 27681 0 0 0-.086-40.751q-.056-20.922-.067-41.844-.008-12.9-.056-25.8-.03-8.858-.022-17.714.006-5.104-.023-10.206c-.02-3.7-.015-7.4-.004-11.1l-.035-3.211c.083-10.57 2.439-20.979 9.485-29.13 19.64-18.658 57.205-17.224 78.238-2.37m-494.868-10.72 2.721-.03 2.952-.012 3.035-.017q3.186-.015 6.373-.02c3.237-.01 6.474-.04 9.71-.073l6.194-.015 2.92-.038c7.005.023 11.919.914 17.373 5.628 2.678 3.078 5.126 6.24 7.508 9.55l1.442 1.986c4.266 5.904 8.389 11.902 12.495 17.917 3.215 4.703 6.48 9.37 9.75 14.035l1.785 2.546 3.605 5.14q3.53 5.036 7.056 10.075l3.478 4.968q4.493 6.416 8.975 12.837l3.664 5.246 1.766 2.531a555 555 0 0 0 11.601 16.009C1331 195 1331 195 1331 197c4.414-4.073 7.617-8.576 10.937-13.563q1.733-2.567 3.47-5.132l1.796-2.661c2.87-4.223 5.8-8.403 8.734-12.582l1.76-2.508 3.537-5.038q4.387-6.255 8.766-12.516l3.5-5 1.75-2.5 5.25-7.5 1.752-2.503q1.74-2.485 3.483-4.966c3.033-4.322 6.04-8.659 9.011-13.023l1.873-2.73a652 652 0 0 0 3.5-5.157c4.415-6.413 9.16-12.361 16.881-14.621 3.459-.3 6.905-.304 10.375-.3l3.037-.014q3.172-.008 6.344-.002c3.233.003 6.464-.02 9.697-.045q3.086-.004 6.172-.002l2.923-.028c6.127.042 9.67.8 14.264 5.078 1.791 3.488 2.015 6.55 1.188 10.313-1.143 2.082-1.143 2.082-2.637 4.223l-1.653 2.384L1465 109l-1.548 2.169a683 683 0 0 1-4.827 6.581l-1.816 2.459c-5.213 7.034-10.522 13.994-15.841 20.948C1434.198 150.02 1427.589 159 1421 168c-7.905 10.796-15.891 21.518-24.023 32.144a1140 1140 0 0 0-15.147 20.294c-2.525 3.459-5.064 6.89-7.736 10.238l-1.311 1.662a425 425 0 0 1-3.404 4.217c-1.617 2.326-1.617 2.326-1.16 4.822.87 2.925 2.005 4.644 3.886 7.037l1.96 2.525 2.122 2.686q2.211 2.846 4.418 5.695l2.248 2.892c3.117 4.047 6.136 8.162 9.147 12.288a1176 1176 0 0 0 15 20c8.041 10.511 15.89 21.156 23.709 31.834 6.682 9.12 13.423 18.186 20.291 27.166 5.327 6.974 10.635 13.96 15.875 21l1.785 2.373c6.427 8.68 6.427 8.68 6.215 14.627-1.035 4.139-1.635 5.696-4.875 8.5-3.917.761-7.794.676-11.773.629l-3.505.007a751 751 0 0 1-7.338-.04c-3.738-.033-7.474-.02-11.212 0q-3.567-.01-7.133-.03l-3.381.015c-6.194-.093-9.962-.41-14.658-4.581-2.316-2.566-2.316-2.566-4.563-5.563l-1.266-1.684c-4.828-6.502-9.344-13.226-13.886-19.929a786 786 0 0 0-9.223-13.262A3479 3479 0 0 1 1369 337a5363 5363 0 0 0-16.047-22.82q-3.084-4.363-6.156-8.735l-1.609-2.286q-1.504-2.137-3.005-4.277c-3.306-4.695-6.715-9.305-10.183-13.882-6.75 9.266-13.44 18.562-19.906 28.03-4.785 7.002-9.684 13.922-14.587 20.842a9052 9052 0 0 0-7.382 10.44l-1.484 2.102A4845 4845 0 0 0 1277 363l-3.535 5.047a2798 2798 0 0 0-6.774 9.719c-12.699 18.24-12.699 18.24-18.691 22.234-2.346.267-2.346.267-5.142.29l-3.176.04-3.428.006-3.523.02q-3.69.015-7.382.015c-3.768.004-7.536.04-11.304.078q-3.583.009-7.166.012l-3.422.043-3.185-.018-2.8.008c-3.227-.645-4.404-1.994-6.472-4.494-1.774-3.547-1.628-7.135-1-11 1.583-3.258 3.73-5.941 6-8.75l1.898-2.459a655 655 0 0 1 4.032-5.16c2.729-3.468 5.397-6.98 8.066-10.494q2.015-2.651 4.037-5.296c4.991-6.529 9.889-13.12 14.748-19.747 4.825-6.575 9.714-13.099 14.616-19.616 4.217-5.612 8.39-11.255 12.54-16.916 5.602-7.633 11.32-15.173 17.075-22.69a1211 1211 0 0 0 15.472-20.745c2.763-3.776 5.554-7.503 8.516-11.127-1.595-5.214-4.893-8.945-8.25-13.125-5.076-6.418-10.042-12.897-14.875-19.5A1621 1621 0 0 0 1261 192c-4.29-5.7-8.53-11.435-12.75-17.188A1275 1275 0 0 0 1233 154.5c-6.853-8.958-13.575-18.005-20.238-27.104a1460 1460 0 0 0-5.606-7.56l-1.917-2.58q-1.807-2.43-3.622-4.852c-8.27-11.147-8.27-11.147-8.965-15.662.766-5.013 2.267-7.457 6.348-10.742 2.336-1.168 3.736-1.139 6.339-1.161m-124.467-77.27L1084 8c1.037 2.806 1.437 4.099 1 7-1.49 2.102-1.49 2.102-3.642 4.39l-2.504 2.67Q1077.43 23.533 1076 25l-1.517 1.556c-4.055 4.143-8.16 8.236-12.268 12.327l-3.93 3.925q-5.123 5.117-10.253 10.229-5.252 5.236-10.499 10.479Q1027.271 73.76 1017 84l2.168.004q10.13.026 20.26.128c3.471.034 6.943.06 10.415.064 3.994.005 7.987.05 11.981.097l3.766-.012c8.583.145 8.583.145 12.688 2.992 2.205 3.492 2.544 5.388 2.305 9.426-1.09 4.306-4.005 6.877-7.146 9.863l-3.902 3.938-1.882 1.855a100 100 0 0 0-5.278 5.707l-1.559 1.805-3.07 3.61c-6.066 7.143-12.203 14.184-18.59 21.043a388 388 0 0 0-9.449 10.523A544 544 0 0 1 1023.5 162a683 683 0 0 0-8 9c-3.393 3.895-6.852 7.728-10.313 11.562A578 578 0 0 0 999.5 189c-3.393 3.895-6.852 7.728-10.313 11.562A578 578 0 0 0 983.5 207a683 683 0 0 1-8 9c-3.27 3.625-6.535 7.25-9.693 10.973C964 229 964 229 962.17 230.664c-4.029 3.868-5.642 6.774-6.05 12.385a249 249 0 0 0-.006 7.16l-.033 3.964a754 754 0 0 0 .007 10.697c.016 3.734-.008 7.468-.028 11.202a3183 3183 0 0 0-.01 21.185c.018 8.044-.004 16.087-.029 24.131A9955 9955 0 0 0 956 371l3.862.472C972.2 372.981 991.89 377.941 1000 388c1.27 2.835.985 4.058.187 7.125C999 398 999 398 997 400c-2.455.254-2.455.254-5.611.26l-3.616.022-3.988-.007-4.183.015c-3.793.014-7.587.014-11.38.012q-4.746 0-9.49.008-11.194.016-22.387.006c-7.705-.006-15.41.006-23.115.027q-9.913.026-19.826.02c-3.95-.001-7.9.001-11.85.015q-5.571.018-11.142-.002c-2.017-.004-4.033.008-6.05.02l-3.624-.022h-3.157C855 400 855 400 853.204 398.685 851.142 395.8 851 393.5 851 390c3.276-4.771 6.49-7.26 11.875-9.438l1.933-.8c6.315-2.535 12.744-4.543 19.262-6.485l3.2-.963q3.864-1.162 7.73-2.314.247-25.83.363-51.66c.036-7.997.085-15.992.165-23.988q.106-10.455.13-20.912c.01-3.69.031-7.38.082-11.069.057-4.123.058-8.244.055-12.367l.076-3.693c-.049-5.702-.164-9.327-4.302-13.494-1.173-.96-2.36-1.903-3.569-2.817a155 155 0 0 1-3.375-3.813C880.487 221.394 876.244 216.7 872 212c-8.569-9.489-8.569-9.489-12.438-13.938-3.653-4.195-7.407-8.296-11.156-12.406a551 551 0 0 1-7.562-8.562c-2.253-2.558-4.547-5.076-6.844-7.594a633 633 0 0 1-10.156-11.406c-2.253-2.558-4.547-5.076-6.844-7.594a633 633 0 0 1-10.156-11.406c-2.253-2.558-4.547-5.076-6.844-7.594a613 613 0 0 1-10.219-11.473c-2.083-2.371-4.215-4.696-6.344-7.027-10.193-11.397-10.193-11.397-11-16.688.773-4.548 2.013-7.087 5.649-9.96 3.87-1.796 7.207-1.537 11.356-1.24l2.573.143q2.79.156 5.58.333c5.187.325 10.376.594 15.565.869l3.361.182c15.658.83 31.332 1.231 47.005 1.661 12.693.36 25.35.858 38.021 1.696 14.692.951 29.357 1.523 44.082 1.54 1.197 0 2.395.002 3.629.004 36.651-.184 60.315-9.04 86.397-35.088 11.325-11.68 22.033-24.047 31.885-36.995l1.804-2.34a185 185 0 0 0 3.234-4.35c3.573-4.673 3.573-4.673 8.294-5.198M832 103c3.147 5.615 3.147 5.615 6.742 10.734l1.52 1.959 1.613 2.057a912 912 0 0 1 14.062 18.625l1.751 2.382q2.658 3.62 5.312 7.243c23.945 37.263 23.945 37.263 58 63 8.868.874 14.6-.393 21.469-6.023A218 218 0 0 0 950 196l1.651-1.578c4.248-4.133 7.924-8.494 11.474-13.235l1.688-2.229c4.456-5.913 8.785-11.914 13.093-17.935 4.318-6.01 8.779-11.901 13.281-17.773 5.27-6.875 10.43-13.799 15.418-20.879 3.254-4.61 6.624-9.137 9.994-13.663 2.341-2.607 2.341-2.607 3.401-5.708-8.783-1.646-18.141-2.845-26.134 1.835-3.137 2.429-5.937 4.984-8.741 7.79l-2.735 2.675c-5.745 6.277-7.389 10.992-7.266 19.494-.199 5.141-2.4 8.948-5.124 13.206l-1.688 2.687c-5.15 5.15-11.165 9.581-18.312 11.313a149 149 0 0 1-5.875-.875c-5.18-.179-7.658 1.002-11.352 4.43a150 150 0 0 0-6.304 6.754l-1.938 2.191c-.561.67-1.123 1.34-1.7 2.031C921 178 921 178 918.34 178.281 916 178 916 178 915 177c-.531-2.625-.531-2.625 0-6 2.224-2.637 4.882-4.763 7.5-7 5.578-5.035 5.578-5.035 8.39-11.809-.132-3.433-.497-6.78-.89-10.191 1.161-7.467 6.5-14.013 12.105-18.797 5.12-3.66 10.61-6.357 16.895-7.203q2.419.51 4.812 1.125c2.884.478 4.479.374 6.894-1.324 4.126-3.6 7.783-7.607 11.294-11.801v-1zM448.3 84.839l2.62-.03 2.822-.012 2.91-.017q3.05-.015 6.098-.02c3.106-.01 6.211-.041 9.316-.073q2.963-.009 5.926-.015l2.81-.038c4.868.017 8.295.112 12.198 3.366 2.04 3.06 2.25 3.657 2.256 7.098l.019 2.538-.01 2.789.013 2.963c.013 3.29.01 6.582.01 9.873q.008 3.53.02 7.06.022 7.615.028 15.23c.006 7.346.024 14.693.046 22.04a31672 31672 0 0 1 .09 37.954l.06 32.553.004 2.158q.033 17.82.088 35.64.035 11.967.044 23.936.01 7.447.036 14.895.009 3.454.007 6.909c-.001 3.144.01 6.287.024 9.431l-.01 2.762c.037 5.06.171 9.52 2.275 14.171 4.588 2.525 9.539 2.28 14.654 2.245l2.6.007c2.87.005 5.74-.004 8.61-.012q3.09 0 6.18.006 6.648.006 13.298-.002c7.009-.008 14.018.003 21.026.017 19.93.038 39.858.056 59.787.044q16.514-.01 33.028.037c6.968.019 13.935.015 20.903-.004 4.334-.007 8.667.007 13 .027q3.015.007 6.03-.011c2.745-.017 5.487-.002 8.23.02l2.411-.036c4.013.066 6.525.486 9.721 3.014 3.152 3.31 3.642 5.536 3.699 9.932l.039 2.61.022 2.813.025 2.904q.02 3.042.032 6.085c.017 3.094.061 6.188.105 9.283q.015 2.958.026 5.916l.053 2.794c-.021 6.221-.976 9.808-5.479 14.311a67 67 0 0 1-4.404.14l-2.9.017-3.223.004-3.395.015c-3.785.016-7.57.024-11.356.033q-3.021.01-6.041.022c-8.818.033-17.636.054-26.454.073l-6.886.015a42816 42816 0 0 1-55.12.09c-13.296.016-26.59.057-39.886.108q-20.46.077-40.921.088c-7.663.005-15.325.02-22.987.06q-9.787.052-19.576.036c-3.33-.006-6.66 0-9.99.028-3.61.027-7.217.018-10.826 0l-3.197.05c-4.71-.061-7.106-.248-10.988-3.065-3.09-4.738-2.538-10.413-2.485-15.86l-.024-3.74c-.016-3.419-.01-6.836.005-10.254.012-3.69-.006-7.379-.02-11.068a4263 4263 0 0 1-.002-21.673q.015-8.806.007-17.614l-.002-2.532-.005-5.092c-.015-15.918.002-31.836.029-47.754q.031-20.488-.005-40.976a17922 17922 0 0 1-.015-55.178 6448 6448 0 0 0-.014-17.593q-.022-10.72.016-21.44c.013-3.646.018-7.292.002-10.938-.018-3.952.003-7.904.028-11.856l-.034-3.495c.107-8.65.107-8.65 3.021-12.348 3.348-2.912 5.66-3.426 9.948-3.464m-436.851.03 2.853-.012 3.155.003 3.336-.01q5.57-.01 11.14-.011l7.957-.015q10.835-.02 21.669-.024l13.525-.012q18.716-.019 37.432-.026h4.848l4.869-.002h2.44q19.568-.009 39.137-.046 20.081-.035 40.162-.037 11.279.001 22.558-.025 9.603-.023 19.207-.012 4.901.007 9.803-.011c3.54-.013 7.081-.007 10.622.004l3.135-.025c8.806.061 8.806.061 12.703 3.392 2.122 3.183 2.257 4.014 2.29 7.667l.04 2.863.006 3.087.02 3.18q.015 3.331.015 6.662c.004 3.396.04 6.79.078 10.186q.009 3.236.012 6.472l.043 3.075c-.027 4.309-.083 7.058-2.22 10.863-5.471 4.66-11.096 4.229-17.95 4.199l-3.294.01c-3.649.007-7.297.001-10.946-.005l-7.84.01a8273 8273 0 0 1-19.095.002q-7.76-.007-15.52-.003h-2.23l-4.486.003q-21.035.006-42.071-.012-18.051-.012-36.102.002a34776 34776 0 0 1-48.611.006q-7.75-.003-15.501.006-10.43.008-20.861-.01-3.834-.004-7.666.002c-3.482.006-6.963-.001-10.445-.011l-3.082.013c-5.828-.032-9.86-.542-14.861-3.709-2.817-4.182-2.313-8.564-2.29-13.492l-.018-3.242q-.01-3.393.009-6.786c.013-3.46-.02-6.917-.059-10.376q0-3.297.006-6.596l-.04-3.131c.093-7.188.093-7.188 3.083-11.064 3.37-2.438 4.952-2.996 9.035-3.002m5.565 124.503 3.37-.022c3.73-.017 7.458 0 11.187.019q4.009-.007 8.017-.022c6.506-.018 13.012-.01 19.518.008q7.932.02 15.862.015l2.28-.002q2.295 0 4.588-.003c13.518-.008 27.035.008 40.553.038q19.676.044 39.352.02a17864 17864 0 0 1 47.425.003l2.27.003q7.923.007 15.845-.005 9.653-.011 19.307.024 4.925.02 9.85.008c3.56-.009 7.117.007 10.675.03l3.15-.026c4.438.052 7.007.093 10.855 2.447 2.716 3.02 3.014 4.68 3.075 8.647l.049 2.863c.044 4.322.085 8.644.108 12.967q.025 3.42.082 6.84c.055 3.287.077 6.572.091 9.858l.07 3.084c-.022 7.094-.022 7.094-3 10.954-3.371 2.444-4.952 3.005-9.039 3.014l-2.85.014h-3.154l-3.334.01q-5.566.015-11.133.019l-7.952.02c-7.972.02-15.945.03-23.918.039l-11.258.015a47757 47757 0 0 1-47.133.044l-2.438.002c-13.04.008-26.078.033-39.117.066q-20.072.049-40.145.054c-7.515.002-15.03.011-22.546.036q-9.6.034-19.2.02-4.897-.007-9.796.017c-3.541.018-7.08.01-10.622-.002l-3.126.033C8.923 270.468 5.493 269.958 1 266c-1.2-2.4-1.159-3.966-1.209-6.646l-.058-2.923a2165 2165 0 0 1-.138-13.242 645 645 0 0 0-.103-6.987c-.066-3.355-.094-6.71-.113-10.065l-.084-3.151.008-2.952-.031-2.586c.884-2.972 2.337-4.467 4.743-6.38 4.045-2.177 8.512-1.747 13-1.696M10.48 340.866l2.874-.014h3.179l3.36-.01q5.611-.015 11.223-.019l8.016-.02c8.037-.02 16.073-.03 24.11-.039l11.347-.015a48507 48507 0 0 1 47.498-.044l2.458-.002c13.143-.008 26.286-.033 39.429-.066q20.23-.049 40.46-.054c7.575-.002 15.15-.011 22.725-.036q9.675-.034 19.35-.02 4.939.007 9.876-.017c3.567-.018 7.134-.011 10.701.002l3.159-.033c4.446.04 7.018.07 10.875 2.426 2.712 3.022 3.012 4.683 3.073 8.649l.049 2.863c.044 4.322.085 8.644.108 12.967q.025 3.42.082 6.84c.055 3.287.077 6.572.091 9.858l.07 3.084-.01 2.892.025 2.532c-.951 3.77-2.509 5.06-5.608 7.41-3.666.75-7.283.674-11.014.635l-3.408.024c-3.776.02-7.55.004-11.326-.012q-4.055.007-8.111.027c-6.585.022-13.17.017-19.756.002q-8.026-.015-16.054-.007l-2.307.002-4.64.005c-14.505.015-29.01-.002-43.515-.029q-18.675-.031-37.35.005a14885 14885 0 0 1-47.984.017l-2.297-.002c-5.347-.005-10.693.003-16.039.014q-9.77.022-19.54-.016-4.985-.021-9.971-.002c-3.6.014-7.2-.003-10.8-.028l-3.197.034c-7.056-.096-7.056-.096-10.34-3.06-1.431-2.764-1.857-4.411-1.869-7.504l-.038-2.862.025-3.055-.012-3.172q-.004-3.314.022-6.626c.02-3.378 0-6.754-.026-10.132q.004-3.223.016-6.445l-.025-3.056c.06-4.432.11-7.029 2.464-10.87 3.01-2.716 4.617-3.013 8.572-3.021"/>
</svg>
